<svg height="512" viewBox="0 0 256 256" width="512" xmlns="http://www.w3.org/2000/svg"><path d="m192.342 250.14a11.844 11.844 0 0 0 -8.134-7.807c-8-2-9-12.994-9-12.994-.682-6.731 3.834-30.262 4.952-36.751a7.478 7.478 0 0 1 1.3-3.13c7.041-9.7 5.208-20.481 3.428-26.165a7.661 7.661 0 0 1 1.146-6.9c2.611-3.47 6.02-10.217 4.926-21.011-2.139-21.105-23.962-23.2-23.962-23.2a13.577 13.577 0 0 0 -8.867-8.148c-.774-3.123-3.178-7.953-5.569-12.291-.523 3.249-2.318 7.054-6.09 11.466a7.931 7.931 0 0 1 -1.763 8.4 27.96 27.96 0 0 1 -4.933 3.953 24.234 24.234 0 0 0 -.792 13.262.761.761 0 0 1 -1.074.88l-1.106-.553a.765.765 0 0 0 -1.1.813c.475 2.812 1.94 9.1 6 13.747a.762.762 0 0 1 -.755 1.247c-6.424-1.675-22.85-8.027-24.509-29.265a27.983 27.983 0 0 1 -5.145-4.085 7.931 7.931 0 0 1 -1.763-8.4c-3.772-4.412-5.567-8.217-6.09-11.466-2.391 4.338-4.8 9.168-5.569 12.291a13.577 13.577 0 0 0 -8.873 8.148s-21.823 2.1-23.962 23.2c-1.094 10.794 2.315 17.541 4.926 21.011a7.661 7.661 0 0 1 1.146 6.9c-1.78 5.684-3.613 16.462 3.428 26.165a7.478 7.478 0 0 1 1.3 3.13c1.118 6.489 5.634 30.02 4.952 36.751 0 0-1 10.994-9 12.994a11.844 11.844 0 0 0 -8.134 7.807 2.5 2.5 0 0 0 2.348 3.36h10.496a5.41 5.41 0 0 0 4.488-2.375 6.549 6.549 0 0 1 5.8-2.792 6.963 6.963 0 0 0 5.715-2.457 2.523 2.523 0 0 1 3.466-.367 10.726 10.726 0 0 0 3.819 1.824 7.24 7.24 0 0 1 4.453 4.063 3.786 3.786 0 0 0 7.142-1.167c.423-2.939-.1-7.065-5.595-8.9-9-3-7.047-13.989-7.047-13.989s4.355-16.462 1.077-32.756a22.554 22.554 0 0 1 -.369-6.175 77.547 77.547 0 0 1 23.891 21.7 5.733 5.733 0 0 0 9.312 0 77.547 77.547 0 0 1 23.891-21.7 22.554 22.554 0 0 1 -.369 6.175c-3.278 16.294 1.077 32.756 1.077 32.756s1.953 10.989-7.047 13.989c-5.491 1.831-6.018 5.957-5.595 8.9a3.786 3.786 0 0 0 7.142 1.167 7.24 7.24 0 0 1 4.453-4.063 10.726 10.726 0 0 0 3.819-1.824 2.523 2.523 0 0 1 3.466.367 6.963 6.963 0 0 0 5.715 2.457 6.549 6.549 0 0 1 5.8 2.792 5.41 5.41 0 0 0 4.496 2.376h10.5a2.5 2.5 0 0 0 2.342-3.36z" fill="#5b5d60"/><g fill="#818182"><path d="m150.208 241.333c9-3 7.047-13.989 7.047-13.989s-4.355-16.462-1.077-32.756a22.554 22.554 0 0 0 .369-6.175 77.547 77.547 0 0 0 -23.891 21.7 5.733 5.733 0 0 1 -9.312 0 77.547 77.547 0 0 0 -23.891-21.7 22.554 22.554 0 0 0 .369 6.175c3.278 16.294-1.077 32.756-1.077 32.756s-1.953 10.989 7.047 13.989c3.718 1.24 5.157 3.533 5.569 5.8a77.757 77.757 0 0 0 16.639 2.475 77.757 77.757 0 0 0 16.639-2.479c.412-2.263 1.851-4.556 5.569-5.796z"/><path d="m216.842 250.14a11.962 11.962 0 0 0 -8.134-7.807c-14.708-3.833-11.841-15.093-11.841-15.093 1.079-5.818 4.841-14 9.133-19.74 7.381-9.867 6.152-18.059 4.925-21.806a7.113 7.113 0 0 1 .039-4.5c1.185-3.522 2.273-10.233-4.634-14.081-4.915-2.738-12.676-1.36-20.241 1.287a27.681 27.681 0 0 1 -4.631 21.058 7.478 7.478 0 0 0 -1.3 3.13c-1.118 6.489-5.634 30.02-4.952 36.751 0 0 1 10.994 9 12.994a11.173 11.173 0 0 1 7.164 5.695 8.774 8.774 0 0 0 2.336.305 6.546 6.546 0 0 1 5.8 2.792 5.412 5.412 0 0 0 4.494 2.375h10.5a2.5 2.5 0 0 0 2.342-3.36z"/><path d="m71.792 242.333c8-2 9-12.994 9-12.994.682-6.731-3.834-30.262-4.952-36.751a7.478 7.478 0 0 0 -1.3-3.13 27.681 27.681 0 0 1 -4.629-21.058c-7.565-2.647-15.326-4.025-20.241-1.287-6.907 3.848-5.819 10.559-4.634 14.081a7.113 7.113 0 0 1 .039 4.5c-1.227 3.747-2.456 11.939 4.925 21.806 4.292 5.737 8.054 13.922 9.133 19.74 0 0 2.867 11.26-11.841 15.093a11.962 11.962 0 0 0 -8.134 7.807 2.5 2.5 0 0 0 2.348 3.36h10.5a5.412 5.412 0 0 0 4.488-2.375 6.546 6.546 0 0 1 5.8-2.792 8.774 8.774 0 0 0 2.336-.305 11.173 11.173 0 0 1 7.162-5.695z"/></g><path d="m199.082 74.558a22.214 22.214 0 0 0 -15.308-8.451 26.827 26.827 0 0 1 3.972 13.831 4.247 4.247 0 0 0 6.132 3.808 18.485 18.485 0 0 0 4.841-3.573 4.247 4.247 0 0 0 .363-5.615z" fill="#fcdd86"/><path d="m209.335 89.563a2.138 2.138 0 0 0 -1.952 3.157l21.307 36.11c.3-31.861 23.117-46.215 23.117-46.215h-.04c-12.367 3.509-28.982 7.285-42.432 6.948z" fill="#5b5d60"/><path d="m56.918 74.558a22.214 22.214 0 0 1 15.308-8.451 26.827 26.827 0 0 0 -3.972 13.831 4.247 4.247 0 0 1 -6.132 3.808 18.485 18.485 0 0 1 -4.841-3.573 4.247 4.247 0 0 1 -.363-5.615z" fill="#fcdd86"/><path d="m46.665 89.563a2.138 2.138 0 0 1 1.952 3.157l-21.307 36.11c-.3-31.861-23.117-46.215-23.117-46.215h.04c12.367 3.509 28.982 7.285 42.432 6.948z" fill="#5b5d60"/><path d="m197.559 99.484a2.135 2.135 0 0 0 -3.565.612c-1.538 3.761-5.644 10.867-11.381 18.826a23.932 23.932 0 0 1 8.345 16.46c.121 1.195.179 2.332.2 3.429a58.2 58.2 0 0 1 30.608-6.754z" fill="#5b5d60"/><path d="m251.18 78.3c-18.712 1.155-38.711 1.411-51.227-1.393a4.308 4.308 0 0 1 -1.234 3.268 18.485 18.485 0 0 1 -4.841 3.573 4.191 4.191 0 0 1 -4.887-.81c-3.783 11.488-10.069 21.865-16.578 30.469a29.775 29.775 0 0 1 10.2 5.517c5.738-7.959 9.844-15.065 11.382-18.826a2.135 2.135 0 0 1 3.565-.612l28.447 38.284c2.592 3.488 7.927-.053 5.718-3.8l-24.342-41.25a2.139 2.139 0 0 1 1.952-3.157c13.5.335 30.193-3.468 42.576-6.994a2.179 2.179 0 0 0 -.731-4.269z" fill="#818182"/><path d="m83.587 113.405c-6.509-8.6-12.8-18.981-16.578-30.469a4.191 4.191 0 0 1 -4.887.81 18.485 18.485 0 0 1 -4.841-3.573 4.308 4.308 0 0 1 -1.234-3.268c-12.516 2.804-32.515 2.548-51.227 1.395a2.179 2.179 0 0 0 -.731 4.271c12.383 3.529 29.075 7.329 42.576 6.992a2.139 2.139 0 0 1 1.952 3.157l-24.341 41.252c-2.209 3.743 3.126 7.284 5.718 3.8l28.447-38.288a2.135 2.135 0 0 1 3.565.612c1.538 3.761 5.644 10.867 11.382 18.826a29.775 29.775 0 0 1 10.199-5.517z" fill="#818182"/><path d="m65.042 135.382a23.932 23.932 0 0 1 8.345-16.46c-5.737-7.959-9.843-15.065-11.381-18.826a2.135 2.135 0 0 0 -3.565-.612l-24.2 32.573a58.2 58.2 0 0 1 30.608 6.754c.014-1.097.072-2.234.193-3.429z" fill="#5b5d60"/><path d="m80.932 43.47a28.712 28.712 0 0 0 15.554 11.87 15.565 15.565 0 0 1 2.714-6.84 3.928 3.928 0 0 0 -.527-5.066c-.153-.147-.29-.3-.438-.443-8.611-1.318-18.572-5.019-23.173-6.856a44.2 44.2 0 0 1 5.87 7.335z" fill="#818182"/><path d="m98.432 64.59a14.773 14.773 0 0 1 -1.954-9.252 28.719 28.719 0 0 1 -15.546-11.868 38.132 38.132 0 0 0 -8.512-9.659.963.963 0 0 0 -1.523 1c1.953 7.474-6.451 18.905 6.414 32.8 10.606 11.454 21.2 9.189 26.568 6.834-1.321-2.53-3.108-5.645-5.447-9.855z" fill="#414344"/><path d="m175.068 43.47a28.712 28.712 0 0 1 -15.554 11.87 15.565 15.565 0 0 0 -2.714-6.84 3.928 3.928 0 0 1 .527-5.066c.153-.147.29-.3.438-.443 8.611-1.318 18.572-5.019 23.173-6.856a44.2 44.2 0 0 0 -5.87 7.335z" fill="#818182"/><path d="m157.568 64.59a14.773 14.773 0 0 0 1.954-9.252 28.719 28.719 0 0 0 15.546-11.868 38.132 38.132 0 0 1 8.512-9.659.963.963 0 0 1 1.523 1c-1.953 7.474 6.451 18.905-6.414 32.8-10.606 11.454-21.2 9.189-26.568 6.834 1.321-2.53 3.108-5.645 5.447-9.855z" fill="#414344"/><path d="m108.69 28.987c6.61 1.017 11.078 3.105 14.036 5.182a9.2 9.2 0 0 0 10.548 0c2.958-2.077 7.426-4.165 14.036-5.182.4-.061.785-.132 1.161-.21a35.967 35.967 0 0 0 -40.942 0c.376.078.762.149 1.161.21z" fill="#818182"/><path d="m157.328 43.428c15.172-14.623 7.938-30.428 2.517-38.321a1.052 1.052 0 0 0 -1.885.872c2.92 9.921 2.334 21.011-10.65 23.008-6.61 1.017-11.078 3.105-14.036 5.182a9.2 9.2 0 0 1 -10.548 0c-2.958-2.077-7.426-4.169-14.036-5.182-12.984-1.997-13.57-13.087-10.65-23.008a1.052 1.052 0 0 0 -1.885-.872c-5.421 7.893-12.655 23.698 2.517 38.321a3.926 3.926 0 0 1 .534 5.061 14.516 14.516 0 0 0 -.774 16.1c4.974 8.954 7.483 12.987 8.213 16.832q.288-.318.586-.616a17.726 17.726 0 0 1 11.714-4.943q2.239-.1 4.479-.152a10.329 10.329 0 0 0 9.148 0q2.239.051 4.479.152a17.726 17.726 0 0 1 11.714 4.943q.3.3.586.616c.73-3.845 3.239-7.878 8.213-16.832a14.516 14.516 0 0 0 -.774-16.1 3.926 3.926 0 0 1 .538-5.061z" fill="#818182"/><path d="m148.768 80.806a17.715 17.715 0 0 0 -11.713-4.942q-2.241-.1-4.482-.153a10.324 10.324 0 0 1 -9.146 0q-2.243.051-4.482.153a17.715 17.715 0 0 0 -11.713 4.942c-4.257 4.221-7.071 11.442 2.3 22.4a8.162 8.162 0 0 1 2.972-3.862 25.742 25.742 0 0 1 31 0 8.162 8.162 0 0 1 2.972 3.862c9.363-10.958 6.549-18.179 2.292-22.4z" fill="#5b5d60"/><path d="m135.705 129.964a.765.765 0 0 1 1.1-.813l1.106.553a.761.761 0 0 0 1.074-.88 24.234 24.234 0 0 1 .792-13.262 24.378 24.378 0 0 1 -11.777 3.938 24.33 24.33 0 0 1 -11.563-3.81c1.659 21.238 18.085 27.59 24.509 29.265a.762.762 0 0 0 .755-1.247c-4.056-4.642-5.521-10.932-5.996-13.744z" fill="#818182"/><path d="m143.5 99.346a25.742 25.742 0 0 0 -31 0 8.069 8.069 0 0 0 -1.209 12.263c7.851 7.891 16.709 7.891 16.709 7.891s8.858 0 16.707-7.894a8.069 8.069 0 0 0 -1.207-12.26z" fill="#5b5d60"/><path d="m110.8 87.35c-3.117.826-4.336 6.663-3.067 13.581.548.742 1.132 1.5 1.8 2.278a8.16 8.16 0 0 1 2.972-3.863 30.094 30.094 0 0 1 6.941-3.646c-2.365-5.551-5.846-9.093-8.646-8.35z" fill="#edf4fc"/><path d="m145.2 87.35c3.117.826 4.336 6.663 3.067 13.581-.548.742-1.132 1.5-1.8 2.278a8.16 8.16 0 0 0 -2.972-3.863 30.094 30.094 0 0 0 -6.941-3.646c2.365-5.551 5.846-9.093 8.646-8.35z" fill="#edf4fc"/><path d="m149.557 53.424a54.258 54.258 0 0 1 -10.075 4.948 6.159 6.159 0 1 0 10.075-4.948z" fill="#f5c84c"/><path d="m106.443 53.424a54.258 54.258 0 0 0 10.075 4.948 6.159 6.159 0 1 1 -10.075-4.948z" fill="#f5c84c"/><path d="m206.941 12.487h-2.33v-2.33a3.158 3.158 0 0 0 -6.315 0v2.33h-2.329a3.158 3.158 0 0 0 0 6.315h2.333v2.33a3.158 3.158 0 0 0 6.315 0v-2.332h2.33a3.158 3.158 0 0 0 0-6.315z" fill="#f5c84c"/><path d="m36.705 160.654a11.1 11.1 0 0 1 -8.9-8.717.2.2 0 0 0 -.395 0 11.1 11.1 0 0 1 -8.9 8.717.2.2 0 0 0 0 .386 11.1 11.1 0 0 1 8.9 8.717.2.2 0 0 0 .395 0 11.1 11.1 0 0 1 8.9-8.717.2.2 0 0 0 0-.386z" fill="#ef4460"/><circle cx="29.662" cy="188.377" fill="#f5c84c" r="3.377"/><circle cx="174.662" cy="3.377" fill="#87d147" r="3.377"/><circle cx="53.662" cy="55.377" fill="#70d6f9" r="3.377"/><circle cx="216.662" cy="219.377" fill="#ef4460" r="3.377"/><path d="m128 79.279a2.5 2.5 0 0 1 0-5 7.892 7.892 0 0 0 7.114-4.518 5.8 5.8 0 0 1 10.346-.181l.065.128a2.5 2.5 0 0 1 -4.449 2.281l-.069-.135a.763.763 0 0 0 -.705-.367.714.714 0 0 0 -.663.4 12.914 12.914 0 0 1 -11.639 7.392z"/><path d="m128 79.279a12.914 12.914 0 0 1 -11.64-7.391.712.712 0 0 0 -.662-.4.785.785 0 0 0 -.723.4 2.556 2.556 0 0 1 -3.395 1.122 2.446 2.446 0 0 1 -1.105-3.305l.07-.137a5.795 5.795 0 0 1 10.34.19 7.894 7.894 0 0 0 7.115 4.521 2.5 2.5 0 0 1 0 5z"/><path d="m128 48a2.5 2.5 0 0 1 -2.5-2.5v-8a2.5 2.5 0 0 1 5 0v8a2.5 2.5 0 0 1 -2.5 2.5z"/><path d="m156.452 189.839a2.5 2.5 0 0 1 -2.477-2.189c-.072-.565-.172-1.143-.3-1.718-1.97-8.87-4.486-25.982.811-40.892a2.5 2.5 0 1 1 4.711 1.674c-4.878 13.731-2.5 29.788-.64 38.137.161.727.288 1.459.378 2.176a2.5 2.5 0 0 1 -2.169 2.792 2.4 2.4 0 0 1 -.314.02z"/><path d="m99.527 190a2.5 2.5 0 0 1 -2.485-2.8c.094-.789.229-1.581.4-2.356 1.854-8.349 4.236-24.406-.642-38.137a2.5 2.5 0 0 1 4.712-1.674c5.3 14.91 2.781 32.022.811 40.9a18.685 18.685 0 0 0 -.317 1.861 2.5 2.5 0 0 1 -2.479 2.206z"/><path d="m189.994 256h-10.494a7.9 7.9 0 0 1 -6.558-3.475 4.142 4.142 0 0 0 -3.728-1.692 9.412 9.412 0 0 1 -7.655-3.379 12.742 12.742 0 0 1 -4.74 2.3 4.881 4.881 0 0 0 -2.82 2.75 6.25 6.25 0 0 1 -5.633 3.496 6.333 6.333 0 0 1 -6.227-5.416c-.8-5.575 1.848-9.813 7.279-11.623 2.863-.954 4.577-3 5.239-6.247a15.179 15.179 0 0 0 .148-4.859c-.437-1.707-4.317-17.663-1.078-33.76q.109-.543.187-1.09a74.779 74.779 0 0 0 -19.23 18.568 8.231 8.231 0 0 1 -13.368 0 74.78 74.78 0 0 0 -19.23-18.573q.078.549.187 1.091c3.242 16.113-.648 32.084-1.079 33.765-.143.939-1.156 8.92 5.388 11.1 5.43 1.81 8.083 6.048 7.28 11.624a6.336 6.336 0 0 1 -6.228 5.42 6.252 6.252 0 0 1 -5.628-3.491 4.885 4.885 0 0 0 -2.821-2.751 13.167 13.167 0 0 1 -4.707-2.245 9.7 9.7 0 0 1 -7.686 3.32 4.144 4.144 0 0 0 -3.73 1.693 7.9 7.9 0 0 1 -6.562 3.474h-10.5a5 5 0 0 1 -4.691-6.734c1.83-4.9 5.335-8.224 9.87-9.359 6.159-1.539 7.108-10.708 7.117-10.8.556-5.489-2.848-24.473-4.3-32.581-.256-1.429-.471-2.629-.624-3.513a4.989 4.989 0 0 0 -.857-2.084c-7.706-10.62-5.683-22.341-3.791-28.382a5.172 5.172 0 0 0 -.758-4.65c-3.105-4.127-6.565-11.426-5.415-22.766 1.977-19.509 19.465-24.227 24.723-25.207a16.192 16.192 0 0 1 8.56-7.848 73.255 73.255 0 0 1 5.412-11.54 2.5 2.5 0 0 1 4.658.81c.5 3.09 2.356 6.535 5.523 10.24a2.5 2.5 0 0 1 .443 2.494 5.414 5.414 0 0 0 1.191 5.768 25.37 25.37 0 0 0 4.688 3.72 2.5 2.5 0 0 1 1.177 1.932c1.2 15.432 10.764 22.355 17.817 25.381a34.925 34.925 0 0 1 -3.507-10.5 3.27 3.27 0 0 1 2.793-3.785 28.02 28.02 0 0 1 1.36-11.793 2.5 2.5 0 0 1 1.046-1.354 25.287 25.287 0 0 0 4.5-3.6 5.414 5.414 0 0 0 1.192-5.769 2.5 2.5 0 0 1 .443-2.493c3.167-3.7 5.026-7.15 5.524-10.24a2.5 2.5 0 0 1 4.657-.81 73.2 73.2 0 0 1 5.412 11.54 16.192 16.192 0 0 1 8.56 7.848c5.258.98 22.746 5.7 24.723 25.207 1.15 11.338-2.31 18.639-5.415 22.766a5.178 5.178 0 0 0 -.758 4.65c1.892 6.042 3.915 17.763-3.791 28.381a5.012 5.012 0 0 0 -.857 2.086c-.151.879-.365 2.069-.62 3.488-1.455 8.112-4.863 27.11-4.308 32.586.011.112.96 9.281 7.119 10.82 4.534 1.134 8.039 4.457 9.87 9.358a5 5 0 0 1 -4.692 6.733zm-87.024-157.972a35.558 35.558 0 0 0 -2.672 6.607 2.5 2.5 0 0 1 -1.88 1.838 11.044 11.044 0 0 0 -7.092 6.633 2.5 2.5 0 0 1 -2.083 1.563c-.8.081-19.812 2.206-21.714 20.965-.987 9.73 1.868 15.842 4.436 19.256a10.187 10.187 0 0 1 1.535 9.15c-1.612 5.146-3.356 15.1 3.065 23.951a10.015 10.015 0 0 1 1.739 4.172c.151.877.364 2.065.618 3.481 2.587 14.428 4.906 28.527 4.357 33.947-.045.5-1.269 12.764-10.881 15.168-2.974.743-5.127 2.847-6.4 6.255l10.502-.014a2.911 2.911 0 0 0 2.417-1.275 9.139 9.139 0 0 1 7.871-3.892 4.542 4.542 0 0 0 3.776-1.535 5 5 0 0 1 6.9-.791 8.178 8.178 0 0 0 2.928 1.4 9.505 9.505 0 0 1 6.087 5.377 1.278 1.278 0 0 0 1.15.716 1.294 1.294 0 0 0 1.279-1.128c.456-3.166-.787-5.125-3.913-6.167-8.739-2.913-9.523-12.263-8.716-16.8.011-.067.027-.135.044-.2.042-.16 4.162-16.123 1.044-31.625a25.053 25.053 0 0 1 -.412-6.86 2.5 2.5 0 0 1 3.754-1.967 79.85 79.85 0 0 1 24.659 22.4 3.23 3.23 0 0 0 5.254 0 79.838 79.838 0 0 1 24.659-22.4 2.5 2.5 0 0 1 3.753 1.968 25.05 25.05 0 0 1 -.41 6.859c-3.119 15.5 1 31.465 1.043 31.625.017.065.032.133.044.2.806 4.536.023 13.885-8.716 16.8-3.126 1.042-4.369 3-3.912 6.167a1.293 1.293 0 0 0 1.283 1.128 1.277 1.277 0 0 0 1.15-.716 9.5 9.5 0 0 1 6.087-5.376 8.2 8.2 0 0 0 2.929-1.4 5.008 5.008 0 0 1 6.9.792 4.543 4.543 0 0 0 3.777 1.535 9.136 9.136 0 0 1 7.869 3.891 2.912 2.912 0 0 0 2.422 1.274h10.5c-1.273-3.4-3.425-5.5-6.392-6.241-9.613-2.4-10.836-14.672-10.883-15.194-.548-5.4 1.773-19.507 4.363-33.947.252-1.405.464-2.584.613-3.455a10.027 10.027 0 0 1 1.74-4.174c6.419-8.848 4.676-18.8 3.065-23.949a10.186 10.186 0 0 1 1.533-9.15c2.569-3.414 5.424-9.527 4.437-19.256-1.911-18.848-20.907-20.887-21.714-20.965a2.5 2.5 0 0 1 -2.083-1.563 10.993 10.993 0 0 0 -7.093-6.633 2.5 2.5 0 0 1 -1.879-1.839 35.587 35.587 0 0 0 -2.672-6.606 33.405 33.405 0 0 1 -3.79 5.756 10.305 10.305 0 0 1 -2.761 9.588 30.518 30.518 0 0 1 -4.578 3.786 20.92 20.92 0 0 0 -.5 11.045 3.281 3.281 0 0 1 -1.112 3.36 3.234 3.234 0 0 1 -1.54.681 24.636 24.636 0 0 0 4.832 9.822 3.262 3.262 0 0 1 -3.269 5.311c-5.623-1.466-23.876-7.937-26.255-30.246a30.609 30.609 0 0 1 -4.54-3.759 10.312 10.312 0 0 1 -2.761-9.589 33.411 33.411 0 0 1 -3.791-5.755z"/><path d="m128 252.107a79.665 79.665 0 0 1 -17.239-2.55 2.5 2.5 0 0 1 -1.863-1.98c-.214-1.176-.851-2.855-3.9-3.872-8.739-2.913-9.523-12.263-8.716-16.8.011-.067.027-.135.044-.2.042-.16 4.162-16.123 1.044-31.625a25.053 25.053 0 0 1 -.412-6.86 2.5 2.5 0 0 1 3.754-1.967 79.85 79.85 0 0 1 24.659 22.4 3.23 3.23 0 0 0 5.254 0 79.838 79.838 0 0 1 24.659-22.4 2.5 2.5 0 0 1 3.753 1.968 25.05 25.05 0 0 1 -.41 6.859c-3.128 15.544 1 31.464 1.043 31.623.017.067.032.134.044.2.806 4.536.023 13.885-8.716 16.8-3.051 1.017-3.688 2.7-3.9 3.872a2.5 2.5 0 0 1 -1.865 1.98 79.677 79.677 0 0 1 -17.233 2.552zm-14.629-7.069a74.313 74.313 0 0 0 14.631 2.069 74.367 74.367 0 0 0 14.619-2.069c.826-2.249 2.7-4.711 6.793-6.077 2.863-.954 4.577-3 5.239-6.247a15.179 15.179 0 0 0 .148-4.859c-.437-1.7-4.317-17.662-1.078-33.76q.109-.543.187-1.09a74.779 74.779 0 0 0 -19.23 18.568 8.231 8.231 0 0 1 -13.368 0 74.78 74.78 0 0 0 -19.226-18.573q.078.549.187 1.091c3.242 16.113-.648 32.084-1.079 33.765-.143.939-1.156 8.92 5.388 11.1 4.097 1.371 5.967 3.834 6.793 6.082z"/><path d="m214.494 256h-10.494a7.9 7.9 0 0 1 -6.559-3.475 4.14 4.14 0 0 0 -3.728-1.692 11.153 11.153 0 0 1 -3-.4 2.5 2.5 0 0 1 -1.524-1.2 8.669 8.669 0 0 0 -5.582-4.479c-9.613-2.4-10.836-14.672-10.883-15.194-.548-5.4 1.773-19.507 4.363-33.947.252-1.405.464-2.584.613-3.455a10.027 10.027 0 0 1 1.74-4.174c3.942-5.432 5.35-11.891 4.184-19.194a2.5 2.5 0 0 1 1.644-2.754c9.894-3.464 17.392-3.837 22.283-1.111 6.169 3.436 8.277 9.655 5.786 17.06a4.607 4.607 0 0 0 -.032 2.925c1.445 4.417 2.679 13.418-5.3 24.083-4.014 5.364-7.663 13.228-8.677 18.7-.01.055-.021.109-.035.162-.211.892-1.763 8.979 10.049 12.057a14.385 14.385 0 0 1 9.845 9.352 5 5 0 0 1 -4.69 6.734zm0-5 .006.014a9.522 9.522 0 0 0 -6.423-6.262c-15.914-4.148-13.982-16.413-13.668-17.967 1.155-6.234 5.099-14.785 9.591-20.785 6.624-8.854 5.694-16.037 4.551-19.531a9.556 9.556 0 0 1 .046-6.075c1.721-5.119.55-8.853-3.482-11.1-3.26-1.817-8.867-1.527-16.282.823a29.794 29.794 0 0 1 -5.35 20.807 5.012 5.012 0 0 0 -.857 2.086c-.151.879-.365 2.069-.62 3.488-1.455 8.112-4.863 27.11-4.308 32.586.011.112.96 9.281 7.119 10.82a13.481 13.481 0 0 1 8.127 5.884 6.8 6.8 0 0 0 .766.042 9.132 9.132 0 0 1 7.87 3.892 2.911 2.911 0 0 0 2.42 1.278z"/><path d="m52.005 256h-10.5a5 5 0 0 1 -4.69-6.734 14.385 14.385 0 0 1 9.846-9.352c11.811-3.078 10.259-11.165 10.044-12.077-.01-.039-.023-.1-.031-.141-1.013-5.469-4.662-13.334-8.674-18.696-7.98-10.667-6.746-19.667-5.3-24.083a4.6 4.6 0 0 0 -.032-2.924c-2.493-7.406-.384-13.625 5.786-17.061 4.89-2.726 12.389-2.352 22.284 1.111a2.5 2.5 0 0 1 1.642 2.757c-1.166 7.3.243 13.762 4.185 19.2a10.015 10.015 0 0 1 1.739 4.172c.151.877.364 2.065.618 3.481 2.587 14.428 4.906 28.527 4.357 33.947-.045.5-1.269 12.764-10.881 15.168a8.668 8.668 0 0 0 -5.583 4.478 2.5 2.5 0 0 1 -1.524 1.2 11.153 11.153 0 0 1 -3 .4 4.141 4.141 0 0 0 -3.729 1.693 7.9 7.9 0 0 1 -6.557 3.461zm9.586-29.216c.314 1.554 2.247 13.82-13.669 17.968a9.52 9.52 0 0 0 -6.422 6.262l10.505-.014a2.908 2.908 0 0 0 2.416-1.275 9.138 9.138 0 0 1 7.871-3.892 6.808 6.808 0 0 0 .766-.042 13.485 13.485 0 0 1 8.127-5.884c6.206-1.551 7.108-10.7 7.117-10.8.556-5.5-2.848-24.479-4.3-32.587-.256-1.429-.471-2.629-.624-3.513a4.989 4.989 0 0 0 -.857-2.084 29.8 29.8 0 0 1 -5.351-20.808c-7.414-2.351-13.019-2.639-16.281-.823-4.033 2.247-5.2 5.98-3.481 11.1a9.569 9.569 0 0 1 .045 6.077c-1.146 3.496-2.076 10.677 4.547 19.531 4.491 6 8.434 14.548 9.589 20.782z"/><path d="m113.827 163.688c-1.118 0-2.2-.047-3.213-.121a18.527 18.527 0 0 1 -9.567-3.5 2.5 2.5 0 1 1 2.942-4.043 13.541 13.541 0 0 0 6.987 2.562c6.083.44 10.646-.449 12.855-2.5a5.5 5.5 0 0 0 1.669-4.273v-12.501a2.5 2.5 0 0 1 5 0v12.493a10.38 10.38 0 0 1 -3.264 7.934c-3.355 3.12-8.691 3.949-13.409 3.949z"/><path d="m142.174 163.688c-4.719 0-10.055-.829-13.41-3.949a10.376 10.376 0 0 1 -3.264-7.934v-12.493a2.5 2.5 0 0 1 5 0v12.493a5.5 5.5 0 0 0 1.669 4.273c2.21 2.053 6.768 2.941 12.856 2.5a13.5 13.5 0 0 0 7.28-2.782 2.5 2.5 0 1 1 3.05 3.961 18.477 18.477 0 0 1 -9.968 3.807c-1.013.077-2.096.124-3.213.124z"/><path d="m117.144 181.762q-1.258 0-2.626-.1a15 15 0 0 1 -12.336-8.354 2.5 2.5 0 0 1 4.49-2.2 9.99 9.99 0 0 0 8.207 5.568c4.475.325 7.943-.326 9.511-1.784a3.672 3.672 0 0 0 1.11-2.892v-14.635a2.5 2.5 0 0 1 5 0v14.635a8.682 8.682 0 0 1 -2.7 6.55c-2.3 2.137-5.874 3.212-10.656 3.212z"/><path d="m138.855 181.762c-4.781 0-8.357-1.075-10.65-3.208a8.686 8.686 0 0 1 -2.705-6.554v-14.635a2.5 2.5 0 0 1 5 0v14.635a3.672 3.672 0 0 0 1.11 2.889c1.568 1.459 5.036 2.106 9.51 1.784a9.99 9.99 0 0 0 8.208-5.568 2.5 2.5 0 0 1 4.49 2.2 15 15 0 0 1 -12.337 8.354q-1.368.104-2.626.103z"/><path d="m120.173 198.49q-.925 0-1.927-.073a11.5 11.5 0 0 1 -9.458-6.4 2.5 2.5 0 1 1 4.49-2.2 6.485 6.485 0 0 0 5.328 3.618c2.989.213 5.347-.2 6.319-1.1a1.919 1.919 0 0 0 .575-1.565v-10.541a2.5 2.5 0 0 1 5 0v10.537a6.932 6.932 0 0 1 -2.169 5.226c-1.785 1.66-4.524 2.498-8.158 2.498z"/><path d="m135.827 198.49c-3.635 0-6.373-.838-8.158-2.5a6.932 6.932 0 0 1 -2.169-5.226v-10.535a2.5 2.5 0 0 1 5 0v10.537a1.922 1.922 0 0 0 .575 1.565c.972.905 3.336 1.31 6.319 1.1a6.488 6.488 0 0 0 5.329-3.618 2.5 2.5 0 0 1 4.49 2.2 11.5 11.5 0 0 1 -9.458 6.4c-.668.053-1.312.077-1.928.077z"/><path d="m135.951 61.558a6.53 6.53 0 0 1 -5.155-2.177c-2.252-2.6-1.783-6.412-1.722-6.839a2.5 2.5 0 0 1 4.951.692 4.4 4.4 0 0 0 .554 2.877c.108.122.393.447 1.372.447 3.29 0 10.615-4.063 14.459-6.623a2.5 2.5 0 0 1 2.774 4.16c-1.146.763-11.363 7.463-17.233 7.463z"/><path d="m120.049 61.558c-5.869 0-16.088-6.7-17.233-7.463a2.5 2.5 0 0 1 2.773-4.16c3.845 2.56 11.171 6.623 14.46 6.623.98 0 1.265-.325 1.372-.447a4.391 4.391 0 0 0 .553-2.878 2.5 2.5 0 0 1 4.952-.691c.061.427.531 4.242-1.722 6.839a6.528 6.528 0 0 1 -5.155 2.177z"/><path d="m191.986 86.7a6.678 6.678 0 0 1 -3.487-.987 6.768 6.768 0 0 1 -3.254-5.749 24.268 24.268 0 0 0 -3.529-12.436 2.5 2.5 0 0 1 2.313-3.907 24.876 24.876 0 0 1 17.014 9.386 6.752 6.752 0 0 1 -.547 8.926 21.008 21.008 0 0 1 -5.5 4.048 6.7 6.7 0 0 1 -3.01.719zm-3.681-17.025a29.943 29.943 0 0 1 1.94 10.241 1.78 1.78 0 0 0 .859 1.529 1.653 1.653 0 0 0 1.653.068 16.072 16.072 0 0 0 4.184-3.1 1.747 1.747 0 0 0 .18-2.307 19.859 19.859 0 0 0 -8.816-6.432z"/><path d="m228.69 131.33a2.5 2.5 0 0 1 -2.153-1.229l-21.308-36.111a4.637 4.637 0 0 1 4.046-6.928h.122c13.333.32 30.033-3.547 41.687-6.859a2.523 2.523 0 0 1 3.15 1.9 2.492 2.492 0 0 1 -1.1 2.63c-.213.135-21.669 14.094-21.948 44.123a2.5 2.5 0 0 1 -2.5 2.476zm-18.79-39.256 16.854 28.56a59.06 59.06 0 0 1 15.383-32.92c-10.237 2.443-22.085 4.522-32.237 4.36z"/><path d="m64.014 86.7a6.7 6.7 0 0 1 -3.014-.72 21.027 21.027 0 0 1 -5.5-4.047 6.752 6.752 0 0 1 -.546-8.926 24.865 24.865 0 0 1 17.017-9.387 2.5 2.5 0 0 1 2.313 3.907 24.63 24.63 0 0 0 -3.53 12.435 6.767 6.767 0 0 1 -3.252 5.75 6.685 6.685 0 0 1 -3.488.988zm3.681-17.025a19.853 19.853 0 0 0 -8.816 6.434 1.746 1.746 0 0 0 .18 2.306 16.061 16.061 0 0 0 4.184 3.1 1.645 1.645 0 0 0 1.653-.067 1.776 1.776 0 0 0 .858-1.529 29.941 29.941 0 0 1 1.941-10.245z"/><path d="m27.31 131.33a2.5 2.5 0 0 1 -2.5-2.476c-.28-30.147-21.731-43.986-21.948-44.123a2.5 2.5 0 0 1 .961-4.588 2.669 2.669 0 0 1 1.093.061c11.655 3.313 28.339 7.171 41.687 6.859a4.63 4.63 0 0 1 4.1 2.23 4.577 4.577 0 0 1 .11 4.625l-21.35 36.182a2.5 2.5 0 0 1 -2.153 1.23zm-13.45-43.616a59.087 59.087 0 0 1 15.383 32.92l16.857-28.56c-10.194.16-22-1.917-32.24-4.36z"/><path d="m191.155 141.311a2.5 2.5 0 0 1 -2.5-2.458c-.018-1.126-.079-2.179-.184-3.219a21.554 21.554 0 0 0 -7.478-14.807 2.5 2.5 0 0 1 -.409-3.367c6.154-8.535 9.823-15.2 11.1-18.311a4.634 4.634 0 0 1 7.737-1.337c.052.058.1.119.148.181l24.205 32.573a2.5 2.5 0 0 1 -2.178 3.986 55.625 55.625 0 0 0 -29.276 6.472 2.484 2.484 0 0 1 -1.165.287zm-5.232-22.731a26.543 26.543 0 0 1 7.5 16.346 61.336 61.336 0 0 1 23.3-5.454l-20.675-27.824a112.314 112.314 0 0 1 -10.125 16.932z"/><path d="m228.7 141.7a5.84 5.84 0 0 1 -4.7-2.444l-27.948-37.612c-1.962 4.5-6.369 11.742-11.411 18.736a2.5 2.5 0 0 1 -3.648.443 27.543 27.543 0 0 0 -9.34-5.04 2.5 2.5 0 0 1 -1.234-3.89c7.525-9.949 12.976-19.956 16.2-29.744a2.5 2.5 0 0 1 4.148-.98 1.711 1.711 0 0 0 1.994.339 16.084 16.084 0 0 0 4.183-3.1 1.812 1.812 0 0 0 .516-1.374 2.5 2.5 0 0 1 3.043-2.576c10.348 2.318 27.345 2.768 50.525 1.338a4.679 4.679 0 0 1 1.571 9.171c-11.851 3.373-28.755 7.331-42.694 7.1l23.973 40.633a5.8 5.8 0 0 1 -1.83 7.963 6.035 6.035 0 0 1 -3.348 1.037zm-32.724-45.428a4.616 4.616 0 0 1 3.441 1.54c.052.058.1.119.148.181l28.449 38.284a.936.936 0 0 0 1.557-1.034l-24.342-41.252a4.61 4.61 0 0 1 .069-4.7 4.658 4.658 0 0 1 4.1-2.23c12.324.284 27.485-2.973 38.942-6.093-20.432 1.141-36.023.765-46.438-1.123a6.751 6.751 0 0 1 -1.4 2.085 20.99 20.99 0 0 1 -5.5 4.049 6.682 6.682 0 0 1 -4.6.518 108.784 108.784 0 0 1 -14 25.721 31.7 31.7 0 0 1 5.682 3.136c5.258-7.522 8.437-13.355 9.6-16.207a4.6 4.6 0 0 1 3.49-2.807 4.787 4.787 0 0 1 .802-.068z"/><path d="m27.3 141.7a6.027 6.027 0 0 1 -3.343-1.04 5.8 5.8 0 0 1 -1.83-7.962l23.973-40.624c-13.9.232-30.84-3.725-42.692-7.1a4.679 4.679 0 0 1 1.567-9.174c23.176 1.431 40.178.98 50.525-1.338a2.5 2.5 0 0 1 3.042 2.575 1.821 1.821 0 0 0 .517 1.376 16.08 16.08 0 0 0 4.184 3.095 1.7 1.7 0 0 0 1.993-.338 2.5 2.5 0 0 1 4.147.98c3.223 9.789 8.673 19.8 16.2 29.744a2.5 2.5 0 0 1 -1.235 3.89 27.549 27.549 0 0 0 -9.339 5.04 2.5 2.5 0 0 1 -3.647-.443c-5.043-7-9.45-14.24-11.412-18.737l-27.95 37.616a5.84 5.84 0 0 1 -4.7 2.44zm19.43-54.642a4.639 4.639 0 0 1 4.087 6.856l-24.388 41.329a.936.936 0 0 0 1.558 1.034l28.447-38.284c.047-.062.1-.124.149-.181a4.636 4.636 0 0 1 7.737 1.336c1.165 2.852 4.344 8.684 9.6 16.208a31.7 31.7 0 0 1 5.683-3.136 108.836 108.836 0 0 1 -14.003-25.72 6.691 6.691 0 0 1 -4.6-.52 21.027 21.027 0 0 1 -5.5-4.047 6.805 6.805 0 0 1 -1.4-2.086c-10.414 1.888-26 2.266-46.435 1.123 11.462 3.121 26.628 6.384 38.939 6.093z"/><path d="m64.845 141.311a2.487 2.487 0 0 1 -1.161-.287 55.632 55.632 0 0 0 -29.276-6.472 2.5 2.5 0 0 1 -2.178-3.986l24.2-32.573c.047-.062.1-.124.149-.181a4.636 4.636 0 0 1 7.737 1.336c1.272 3.113 4.941 9.775 11.1 18.312a2.5 2.5 0 0 1 -.41 3.367 21.559 21.559 0 0 0 -7.477 14.807c-.106 1.04-.166 2.093-.185 3.217a2.5 2.5 0 0 1 -2.5 2.459zm-25.569-11.839a61.34 61.34 0 0 1 23.3 5.454 26.538 26.538 0 0 1 7.5-16.346 112.365 112.365 0 0 1 -10.129-16.933z"/><path d="m96.486 57.84a2.483 2.483 0 0 1 -.761-.119 31.349 31.349 0 0 1 -16.887-12.886 41.909 41.909 0 0 0 -5.533-6.927 2.5 2.5 0 0 1 2.684-4.1c3.963 1.582 14.1 5.4 22.625 6.707a2.508 2.508 0 0 1 1.384.7l.412.418a6.4 6.4 0 0 1 .842 8.293 13.16 13.16 0 0 0 -2.287 5.733 2.5 2.5 0 0 1 -2.479 2.182zm-13.8-16.257q.172.258.344.521a25.984 25.984 0 0 0 11.656 9.896 18.922 18.922 0 0 1 2.462-4.935 1.411 1.411 0 0 0 -.119-1.743 98.751 98.751 0 0 1 -14.347-3.739z"/><path d="m94.958 78.877c-5.735 0-12.63-2.172-19.481-9.571-9.672-10.447-8.293-19.883-7.287-26.774.413-2.821.768-5.258.289-7.094a3.462 3.462 0 0 1 5.458-3.614 40.715 40.715 0 0 1 9.089 10.276 26.05 26.05 0 0 0 14.214 10.857 2.5 2.5 0 0 1 1.717 2.7 12.416 12.416 0 0 0 1.66 7.716c.726 1.306 1.4 2.507 2.02 3.617 1.414 2.524 2.531 4.518 3.457 6.291a2.5 2.5 0 0 1 -1.211 3.446 24.849 24.849 0 0 1 -9.925 2.15zm-21.266-40.577a48.016 48.016 0 0 1 -.554 4.96c-.956 6.544-2.04 13.962 6.008 22.654 7.819 8.445 15.473 8.866 21.166 7.184-.6-1.092-1.275-2.3-2.037-3.656-.625-1.116-1.3-2.321-2.028-3.633a17.754 17.754 0 0 1 -2.384-8.74 31.318 31.318 0 0 1 -15.025-12.234 42.876 42.876 0 0 0 -5.146-6.535z"/><path d="m159.515 57.84a2.5 2.5 0 0 1 -2.48-2.182 13.158 13.158 0 0 0 -2.288-5.734 6.4 6.4 0 0 1 .845-8.294l.41-.416a2.5 2.5 0 0 1 1.384-.7c8.525-1.3 18.662-5.125 22.625-6.707a2.5 2.5 0 0 1 2.683 4.1 41.97 41.97 0 0 0 -5.532 6.926 31.356 31.356 0 0 1 -16.887 12.885 2.472 2.472 0 0 1 -.76.122zm-.544-12.515a1.408 1.408 0 0 0 -.12 1.742 18.929 18.929 0 0 1 2.463 4.933 26 26 0 0 0 11.661-9.9q.171-.262.343-.521a98.879 98.879 0 0 1 -14.347 3.746z"/><path d="m161.042 78.877a24.85 24.85 0 0 1 -9.926-2.147 2.5 2.5 0 0 1 -1.211-3.447c.926-1.77 2.041-3.762 3.453-6.281.623-1.113 1.3-2.316 2.025-3.626a12.41 12.41 0 0 0 1.66-7.716 2.5 2.5 0 0 1 1.718-2.7 26.066 26.066 0 0 0 14.214-10.86 40.7 40.7 0 0 1 9.089-10.281 3.462 3.462 0 0 1 5.457 3.616c-.479 1.835-.124 4.272.289 7.093 1.006 6.891 2.385 16.327-7.288 26.774-6.849 7.398-13.745 9.575-19.48 9.575zm-5.355-5.784c5.689 1.682 13.345 1.262 21.167-7.184 8.048-8.692 6.964-16.109 6.008-22.653a47.733 47.733 0 0 1 -.553-4.96 42.721 42.721 0 0 0 -5.147 6.539 31.313 31.313 0 0 1 -15.025 12.229 17.76 17.76 0 0 1 -2.383 8.74c-.731 1.315-1.408 2.524-2.034 3.641-.76 1.355-1.433 2.555-2.033 3.648z"/><path d="m128 38.328a11.664 11.664 0 0 1 -6.71-2.113 30.514 30.514 0 0 0 -12.98-4.757q-.665-.1-1.289-.233a2.5 2.5 0 0 1 -.853-4.544 38.462 38.462 0 0 1 43.665 0 2.5 2.5 0 0 1 -.852 4.544c-.417.087-.846.165-1.29.233a30.5 30.5 0 0 0 -12.979 4.757 11.669 11.669 0 0 1 -6.712 2.113zm-13.312-10.594a31.568 31.568 0 0 1 9.475 4.389 6.7 6.7 0 0 0 7.675 0 31.55 31.55 0 0 1 9.474-4.389 32.6 32.6 0 0 0 -26.624 0z"/><path d="m106.645 83.922a2.5 2.5 0 0 1 -2.456-2.033c-.545-2.872-2.439-6.253-5.878-12.39-.635-1.133-1.323-2.359-2.065-3.695a17.008 17.008 0 0 1 .909-18.744 1.436 1.436 0 0 0 -.219-1.833c-17.036-16.422-7.663-34.518-2.842-41.536a3.552 3.552 0 0 1 6.344 3c-1.895 6.439-1.764 11.835.369 15.192 1.573 2.476 4.353 4.037 8.263 4.639a35.378 35.378 0 0 1 15.093 5.606 6.7 6.7 0 0 0 7.675 0 35.373 35.373 0 0 1 15.092-5.606c3.91-.6 6.69-2.163 8.263-4.639 2.133-3.357 2.264-8.753.369-15.193a3.551 3.551 0 0 1 6.343-2.994c4.822 7.018 14.2 25.113-2.842 41.537a1.435 1.435 0 0 0 -.218 1.832 17.01 17.01 0 0 1 .909 18.745c-.74 1.333-1.427 2.556-2.06 3.687-3.441 6.141-5.338 9.524-5.882 12.4a2.5 2.5 0 0 1 -4.3 1.218c-.165-.18-.333-.358-.5-.528a15.178 15.178 0 0 0 -10.072-4.227q-1.923-.087-3.846-.135a12.882 12.882 0 0 1 -10.188 0q-1.922.048-3.844.135h-.023a15.173 15.173 0 0 0 -10.047 4.22c-.167.166-.334.343-.5.523a2.5 2.5 0 0 1 -1.847.819zm-12.525-69.973c-5.179 12.57.207 21.819 6.287 27.679a6.4 6.4 0 0 1 .85 8.29 12.047 12.047 0 0 0 -.64 13.458c.739 1.33 1.423 2.551 2.055 3.679a105.186 105.186 0 0 1 5.2 9.963 20.6 20.6 0 0 1 10.954-3.652h.023q2.257-.1 4.515-.153a2.343 2.343 0 0 1 1.163.257 7.849 7.849 0 0 0 6.936 0 2.35 2.35 0 0 1 1.163-.257q2.27.051 4.536.154a20.6 20.6 0 0 1 10.956 3.652 105.233 105.233 0 0 1 5.209-9.971c.631-1.126 1.314-2.345 2.051-3.671a12.045 12.045 0 0 0 -.64-13.458 6.394 6.394 0 0 1 .85-8.289c6.08-5.86 11.465-15.11 6.288-27.679a18.231 18.231 0 0 1 -2.467 10.61c-2.381 3.748-6.326 6.069-11.725 6.9a30.5 30.5 0 0 0 -12.978 4.757 11.711 11.711 0 0 1 -13.422 0 30.5 30.5 0 0 0 -12.979-4.757c-5.4-.83-9.343-3.151-11.724-6.9a18.229 18.229 0 0 1 -2.461-10.612z"/><path d="m146.47 105.709a2.5 2.5 0 0 1 -2.344-1.631 5.656 5.656 0 0 0 -2.064-2.685 23.25 23.25 0 0 0 -28.125 0 5.653 5.653 0 0 0 -2.062 2.685 2.5 2.5 0 0 1 -4.245.755c-11.248-13.157-6.181-21.813-2.159-25.8a20.163 20.163 0 0 1 13.361-5.664q2.268-.1 4.538-.154a2.347 2.347 0 0 1 1.163.257 7.844 7.844 0 0 0 6.934 0 2.356 2.356 0 0 1 1.164-.257q2.27.051 4.536.154a20.159 20.159 0 0 1 13.361 5.664c4.022 3.989 9.088 12.646-2.159 25.8a2.5 2.5 0 0 1 -1.899.876zm-18.47-14.051a29.56 29.56 0 0 1 16.933 5.642 10.585 10.585 0 0 1 1.767 1.555c4.559-6.485 4.667-11.95.308-16.274a15.184 15.184 0 0 0 -10.068-4.22q-1.922-.086-3.846-.135a12.882 12.882 0 0 1 -10.188 0q-1.924.049-3.848.135a15.179 15.179 0 0 0 -10.066 4.221c-4.359 4.323-4.251 9.788.308 16.273a10.585 10.585 0 0 1 1.767-1.555 29.562 29.562 0 0 1 16.933-5.642z"/><path d="m141.147 147.484a3.315 3.315 0 0 1 -.832-.107c-5.725-1.493-24.549-8.176-26.37-31.489a2.5 2.5 0 0 1 3.808-2.321 22.276 22.276 0 0 0 10.255 3.433 22.337 22.337 0 0 0 10.431-3.554 2.5 2.5 0 0 1 3.717 2.874 21.447 21.447 0 0 0 -.752 11.88 3.281 3.281 0 0 1 -1.112 3.36 3.234 3.234 0 0 1 -1.54.681 24.648 24.648 0 0 0 4.832 9.822 3.264 3.264 0 0 1 -2.437 5.418zm-21.575-27.407a28.21 28.21 0 0 0 17.175 20.8 34.925 34.925 0 0 1 -3.507-10.5 3.27 3.27 0 0 1 2.793-3.785 24.982 24.982 0 0 1 .108-6.4 24.5 24.5 0 0 1 -8.134 1.81 24.715 24.715 0 0 1 -8.435-1.925z"/><path d="m128 122c-.4 0-10-.1-18.48-8.631a10.374 10.374 0 0 1 -2.971-8.257 10.68 10.68 0 0 1 4.517-7.816 28.237 28.237 0 0 1 33.867 0 10.683 10.683 0 0 1 4.517 7.815 10.376 10.376 0 0 1 -2.972 8.258c-8.478 8.536-18.078 8.631-18.478 8.631zm0-25.345a24.271 24.271 0 0 0 -14.063 4.735 5.69 5.69 0 0 0 -2.408 4.163 5.321 5.321 0 0 0 1.536 4.291c7.035 7.077 14.857 7.156 14.935 7.156.311 0 7.976-.158 14.935-7.156a5.329 5.329 0 0 0 1.536-4.291 5.688 5.688 0 0 0 -2.409-4.163 24.268 24.268 0 0 0 -14.062-4.732z"/><path d="m109.53 105.709a2.5 2.5 0 0 1 -1.9-.876c-.637-.746-1.244-1.515-1.91-2.42a2.511 2.511 0 0 1 -.447-1.031c-1.586-8.644.377-15.254 4.885-16.449 4.114-1.082 8.554 2.66 11.587 9.789a2.5 2.5 0 0 1 -1.445 3.328 27.455 27.455 0 0 0 -6.36 3.344 5.655 5.655 0 0 0 -2.062 2.684 2.5 2.5 0 0 1 -2.345 1.631zm1.908-15.942c-.915.242-2.1 3.39-1.566 8.505a10.689 10.689 0 0 1 1.194-.973 33.377 33.377 0 0 1 4.978-2.891c-1.986-3.611-3.99-4.805-4.606-4.641z"/><path d="m146.47 105.709a2.6 2.6 0 0 1 -.438-.038 2.5 2.5 0 0 1 -1.906-1.593 5.667 5.667 0 0 0 -2.064-2.685 27.462 27.462 0 0 0 -6.362-3.343 2.5 2.5 0 0 1 -1.447-3.328c3.033-7.128 7.473-10.879 11.587-9.789 4.508 1.195 6.47 7.8 4.885 16.449a2.509 2.509 0 0 1 -.447 1.032c-.668.905-1.274 1.674-1.91 2.418a2.5 2.5 0 0 1 -1.898.877zm-6.515-11.3a33.356 33.356 0 0 1 4.978 2.89 10.821 10.821 0 0 1 1.195.974c.529-5.114-.651-8.262-1.566-8.505-.61-.168-2.617 1.026-4.607 4.64z"/><path d="m145.635 66.84a8.621 8.621 0 0 1 -8.652-8.391 2.5 2.5 0 0 1 1.725-2.455 52.5 52.5 0 0 0 9.555-4.709 2.5 2.5 0 0 1 2.887.212 8.663 8.663 0 0 1 -5.515 15.343zm-3.209-6.9a3.663 3.663 0 0 0 6.548-3.273 58.7 58.7 0 0 1 -6.548 3.275z"/><path d="m110.365 66.84a8.663 8.663 0 0 1 -5.515-15.34 2.493 2.493 0 0 1 2.888-.211 52.522 52.522 0 0 0 9.554 4.708 2.5 2.5 0 0 1 1.725 2.455 8.62 8.62 0 0 1 -8.652 8.388zm-3.338-10.171a3.663 3.663 0 0 0 6.548 3.273 58.525 58.525 0 0 1 -6.548-3.273z"/></svg>